<?xml version="1.0" encoding="UTF-8" standalone="no"?>
<!-- Generator: Adobe Illustrator 23.0.1, SVG Export Plug-In . SVG Version: 6.00 Build 0)  -->

<svg
   version="1.1"
   id="svg3409"
   inkscape:version="1.3 (0e150ed6c4, 2023-07-21)"
   sodipodi:docname="Mastercard-logo.svg"
   x="0px"
   y="0px"
   width="999.2px"
   height="776px"
   viewBox="0 0 999.2 776"
   enable-background="new 0 0 999.2 776"
   xml:space="preserve"
   xmlns:inkscape="http://www.inkscape.org/namespaces/inkscape"
   xmlns:sodipodi="http://sodipodi.sourceforge.net/DTD/sodipodi-0.dtd"
   xmlns="http://www.w3.org/2000/svg"
   xmlns:svg="http://www.w3.org/2000/svg"><defs
   id="defs1" /><sodipodi:namedview
   id="namedview1"
   pagecolor="#ffffff"
   bordercolor="#000000"
   borderopacity="0.25"
   inkscape:showpageshadow="2"
   inkscape:pageopacity="0.0"
   inkscape:pagecheckerboard="0"
   inkscape:deskcolor="#d1d1d1"
   inkscape:zoom="1.0386598"
   inkscape:cx="499.68238"
   inkscape:cy="388"
   inkscape:window-width="1920"
   inkscape:window-height="1006"
   inkscape:window-x="0"
   inkscape:window-y="0"
   inkscape:window-maximized="1"
   inkscape:current-layer="svg3409" />&#10;&#10;<g
   id="g1">&#10;	<rect
   id="rect19"
   x="364"
   y="66.1"
   fill="#FF5A00"
   width="270.4"
   height="485.8" />&#10;	<path
   id="XMLID_330_"
   inkscape:connector-curvature="0"
   fill="#EB001B"
   d="M382,309c0-98.7,46.4-186.3,117.6-242.9   C447.2,24.9,381.1,0,309,0C138.2,0,0,138.2,0,309s138.2,309,309,309c72.1,0,138.2-24.9,190.6-66.1C428.3,496.1,382,407.7,382,309z" />&#10;	<path
   id="path22"
   inkscape:connector-curvature="0"
   fill="#F79E1B"
   d="M999.2,309c0,170.8-138.2,309-309,309   c-72.1,0-138.2-24.9-190.6-66.1c72.1-56.7,117.6-144.2,117.6-242.9S570.8,122.7,499.6,66.1C551.9,24.9,618,0,690.1,0   C861,0,999.2,139.1,999.2,309z" />&#10;</g>&#10;</svg>
